<?xml version="1.0" encoding="UTF-8"?> <svg xmlns="http://www.w3.org/2000/svg" xmlns:xlink="http://www.w3.org/1999/xlink" xmlns:svgjs="http://svgjs.com/svgjs" width="512" height="512" x="0" y="0" viewBox="0 0 496 496" style="enable-background:new 0 0 512 512" xml:space="preserve" class=""> <g> <g xmlns="http://www.w3.org/2000/svg" fill="#f0bc5e"> <path d="m312 272c0 35.347656-28.652344 64-64 64s-64-28.652344-64-64 28.652344-64 64-64 64 28.652344 64 64zm0 0" fill="#fee100" data-original="#f0bc5e" style="" class=""></path> <path d="m472 64c0 22.089844-17.910156 40-40 40s-40-17.910156-40-40 17.910156-40 40-40 40 17.910156 40 40zm0 0" fill="#fee100" data-original="#f0bc5e" style="" class=""></path> <path d="m472 432c0 22.089844-17.910156 40-40 40s-40-17.910156-40-40 17.910156-40 40-40 40 17.910156 40 40zm0 0" fill="#fee100" data-original="#f0bc5e" style="" class=""></path> <path d="m104 64c0 22.089844-17.910156 40-40 40s-40-17.910156-40-40 17.910156-40 40-40 40 17.910156 40 40zm0 0" fill="#fee100" data-original="#f0bc5e" style="" class=""></path> <path d="m104 432c0 22.089844-17.910156 40-40 40s-40-17.910156-40-40 17.910156-40 40-40 40 17.910156 40 40zm0 0" fill="#fee100" data-original="#f0bc5e" style="" class=""></path> </g> <path xmlns="http://www.w3.org/2000/svg" d="m240 0h16v16h-16zm0 0" fill="#000000" data-original="#000000" style="" class=""></path> <path xmlns="http://www.w3.org/2000/svg" d="m240 32h16v80h-16zm0 0" fill="#000000" data-original="#000000" style="" class=""></path> <path xmlns="http://www.w3.org/2000/svg" d="m89.609375 100.921875 11.316406-11.3125 56.566407 56.566406-11.3125 11.3125zm0 0" fill="#000000" data-original="#000000" style="" class=""></path> <path xmlns="http://www.w3.org/2000/svg" d="m0 240h16v16h-16zm0 0" fill="#000000" data-original="#000000" style="" class=""></path> <path xmlns="http://www.w3.org/2000/svg" d="m32 240h80v16h-80zm0 0" fill="#000000" data-original="#000000" style="" class=""></path> <path xmlns="http://www.w3.org/2000/svg" d="m89.601562 395.082031 56.566407-56.566406 11.3125 11.3125-56.566407 56.570313zm0 0" fill="#000000" data-original="#000000" style="" class=""></path> <path xmlns="http://www.w3.org/2000/svg" d="m240 480h16v16h-16zm0 0" fill="#000000" data-original="#000000" style="" class=""></path> <path xmlns="http://www.w3.org/2000/svg" d="m240 384h16v80h-16zm0 0" fill="#000000" data-original="#000000" style="" class=""></path> <path xmlns="http://www.w3.org/2000/svg" d="m338.507812 349.800781 11.3125-11.316406 56.570313 56.570313-11.316406 11.3125zm0 0" fill="#000000" data-original="#000000" style="" class=""></path> <path xmlns="http://www.w3.org/2000/svg" d="m480 240h16v16h-16zm0 0" fill="#000000" data-original="#000000" style="" class=""></path> <path xmlns="http://www.w3.org/2000/svg" d="m384 240h80v16h-80zm0 0" fill="#000000" data-original="#000000" style="" class=""></path> <path xmlns="http://www.w3.org/2000/svg" d="m338.511719 146.175781 56.570312-56.566406 11.3125 11.3125-56.566406 56.570313zm0 0" fill="#000000" data-original="#000000" style="" class=""></path> <path xmlns="http://www.w3.org/2000/svg" d="m151.824219 36.71875 14.78125-6.121094 6.121093 14.78125-14.78125 6.121094zm0 0" fill="#000000" data-original="#000000" style="" class=""></path> <path xmlns="http://www.w3.org/2000/svg" d="m164.078125 66.28125 14.785156-6.117188 6.117188 14.785157-14.785157 6.117187zm0 0" fill="#000000" data-original="#000000" style="" class=""></path> <path xmlns="http://www.w3.org/2000/svg" d="m176.3125 95.855469 14.777344-6.125 6.125 14.78125-14.78125 6.125zm0 0" fill="#000000" data-original="#000000" style="" class=""></path> <path xmlns="http://www.w3.org/2000/svg" d="m30.597656 166.613281 6.121094-14.78125 14.78125 6.121094-6.121094 14.78125zm0 0" fill="#000000" data-original="#000000" style="" class=""></path> <path xmlns="http://www.w3.org/2000/svg" d="m60.167969 178.859375 6.117187-14.785156 14.785156 6.121093-6.117187 14.78125zm0 0" fill="#000000" data-original="#000000" style="" class=""></path> <path xmlns="http://www.w3.org/2000/svg" d="m89.722656 191.105469 6.125-14.78125 14.78125 6.125-6.125 14.78125zm0 0" fill="#000000" data-original="#000000" style="" class=""></path> <path xmlns="http://www.w3.org/2000/svg" d="m30.589844 329.382812 14.78125-6.125 6.125 14.78125-14.78125 6.125zm0 0" fill="#000000" data-original="#000000" style="" class=""></path> <path xmlns="http://www.w3.org/2000/svg" d="m60.160156 317.164062 14.78125-6.121093 6.125 14.78125-14.785156 6.121093zm0 0" fill="#000000" data-original="#000000" style="" class=""></path> <path xmlns="http://www.w3.org/2000/svg" d="m89.714844 304.890625 14.78125-6.125 6.125 14.78125-14.78125 6.125zm0 0" fill="#000000" data-original="#000000" style="" class=""></path> <path xmlns="http://www.w3.org/2000/svg" d="m151.816406 459.277344 6.125-14.789063 14.78125 6.125-6.125 14.789063zm0 0" fill="#000000" data-original="#000000" style="" class=""></path> <path xmlns="http://www.w3.org/2000/svg" d="m164.0625 429.707031 6.125-14.777343 14.78125 6.125-6.125 14.777343zm0 0" fill="#000000" data-original="#000000" style="" class=""></path> <path xmlns="http://www.w3.org/2000/svg" d="m176.3125 400.144531 6.125-14.78125 14.78125 6.125-6.125 14.78125zm0 0" fill="#000000" data-original="#000000" style="" class=""></path> <path xmlns="http://www.w3.org/2000/svg" d="m323.257812 450.628906 14.785157-6.117187 6.121093 14.789062-14.785156 6.121094zm0 0" fill="#000000" data-original="#000000" style="" class=""></path> <path xmlns="http://www.w3.org/2000/svg" d="m311.007812 421.050781 14.78125-6.125 6.121094 14.78125-14.777344 6.125zm0 0" fill="#000000" data-original="#000000" style="" class=""></path> <path xmlns="http://www.w3.org/2000/svg" d="m298.765625 391.488281 14.78125-6.125 6.125 14.78125-14.78125 6.125zm0 0" fill="#000000" data-original="#000000" style="" class=""></path> <path xmlns="http://www.w3.org/2000/svg" d="m444.484375 338.054688 6.125-14.78125 14.78125 6.125-6.125 14.78125zm0 0" fill="#000000" data-original="#000000" style="" class=""></path> <path xmlns="http://www.w3.org/2000/svg" d="m414.914062 325.8125 6.125-14.78125 14.78125 6.125-6.125 14.78125zm0 0" fill="#000000" data-original="#000000" style="" class=""></path> <path xmlns="http://www.w3.org/2000/svg" d="m385.355469 313.558594 6.125-14.78125 14.777343 6.125-6.125 14.777344zm0 0" fill="#000000" data-original="#000000" style="" class=""></path> <path xmlns="http://www.w3.org/2000/svg" d="m444.484375 157.953125 14.78125-6.125 6.125 14.78125-14.78125 6.125zm0 0" fill="#000000" data-original="#000000" style="" class=""></path> <path xmlns="http://www.w3.org/2000/svg" d="m414.933594 170.191406 14.785156-6.117187 6.117188 14.785156-14.78125 6.117187zm0 0" fill="#000000" data-original="#000000" style="" class=""></path> <path xmlns="http://www.w3.org/2000/svg" d="m385.363281 182.433594 14.785157-6.121094 6.121093 14.785156-14.78125 6.121094zm0 0" fill="#000000" data-original="#000000" style="" class=""></path> <path xmlns="http://www.w3.org/2000/svg" d="m323.257812 45.386719 6.125-14.78125 14.78125 6.125-6.125 14.78125zm0 0" fill="#000000" data-original="#000000" style="" class=""></path> <path xmlns="http://www.w3.org/2000/svg" d="m311.023438 74.949219 6.121093-14.78125 14.78125 6.117187-6.117187 14.785156zm0 0" fill="#000000" data-original="#000000" style="" class=""></path> <path xmlns="http://www.w3.org/2000/svg" d="m298.765625 104.511719 6.125-14.78125 14.78125 6.125-6.125 14.78125zm0 0" fill="#000000" data-original="#000000" style="" class=""></path> <path xmlns="http://www.w3.org/2000/svg" d="m240 248h16c4.40625 0 8 3.59375 8 8h16c0-13.230469-10.769531-24-24-24v-8h-16v8c-13.230469 0-24 10.769531-24 24s10.769531 24 24 24h16c4.40625 0 8 3.585938 8 8s-3.59375 8-8 8h-16c-4.40625 0-8-3.585938-8-8h-16c0 13.230469 10.769531 24 24 24v8h16v-8c13.230469 0 24-10.769531 24-24s-10.769531-24-24-24h-16c-4.40625 0-8-3.585938-8-8 0-4.40625 3.59375-8 8-8zm0 0" fill="#000000" data-original="#000000" style="" class=""></path> <path xmlns="http://www.w3.org/2000/svg" d="m64 88c13.230469 0 24-10.769531 24-24s-10.769531-24-24-24-24 10.769531-24 24 10.769531 24 24 24zm0-32c4.40625 0 8 3.59375 8 8s-3.59375 8-8 8-8-3.59375-8-8 3.59375-8 8-8zm0 0" fill="#000000" data-original="#000000" style="" class=""></path> <path xmlns="http://www.w3.org/2000/svg" d="m64 408c-13.230469 0-24 10.769531-24 24s10.769531 24 24 24 24-10.769531 24-24-10.769531-24-24-24zm0 32c-4.40625 0-8-3.585938-8-8s3.59375-8 8-8 8 3.585938 8 8-3.59375 8-8 8zm0 0" fill="#000000" data-original="#000000" style="" class=""></path> <path xmlns="http://www.w3.org/2000/svg" d="m432 408c-13.230469 0-24 10.769531-24 24s10.769531 24 24 24 24-10.769531 24-24-10.769531-24-24-24zm0 32c-4.40625 0-8-3.585938-8-8s3.59375-8 8-8 8 3.585938 8 8-3.59375 8-8 8zm0 0" fill="#000000" data-original="#000000" style="" class=""></path> <path xmlns="http://www.w3.org/2000/svg" d="m432 88c13.230469 0 24-10.769531 24-24s-10.769531-24-24-24-24 10.769531-24 24 10.769531 24 24 24zm0-32c4.40625 0 8 3.59375 8 8s-3.59375 8-8 8-8-3.59375-8-8 3.59375-8 8-8zm0 0" fill="#000000" data-original="#000000" style="" class=""></path> <path xmlns="http://www.w3.org/2000/svg" d="m336 312v-15.433594c0-36.199218-13.359375-70.261718-37.503906-96.886718l30.945312-38.679688-2.289062-4.574219c-.417969-.832031-10.449219-20.425781-31.152344-20.425781-7.457031 0-11.433594 5.625-14.0625 9.34375-3.175781 4.496094-4.929688 6.65625-9.9375 6.65625-3.054688 0-3.089844-.0625-4.839844-3.574219-2.175781-4.347656-6.214844-12.425781-19.160156-12.425781s-16.984375 8.078125-19.160156 12.425781c-1.75 3.511719-1.785156 3.574219-4.839844 3.574219-5.007812 0-6.761719-2.160156-9.9375-6.65625-2.628906-3.71875-6.605469-9.34375-14.0625-9.34375-20.703125 0-30.734375 19.59375-31.160156 20.425781l-2.289063 4.574219 30.945313 38.679688c-24.136719 26.625-37.496094 60.695312-37.496094 96.886718v15.433594c0 22.054688 17.945312 40 40 40h96c22.054688 0 40-17.945312 40-40zm-136.902344-159.976562c.535156.625 1.300782 1.703124 1.902344 2.550781 3.542969 5.027343 9.488281 13.425781 23 13.425781 12.945312 0 16.984375-8.078125 19.160156-12.425781 1.75-3.511719 1.785156-3.574219 4.839844-3.574219s3.089844.0625 4.839844 3.574219c2.175781 4.347656 6.214844 12.425781 19.160156 12.425781 13.511719 0 19.457031-8.398438 23-13.414062.601562-.851563 1.359375-1.929688 1.902344-2.554688 6.058594.367188 10.539062 4.367188 13.175781 7.5625l-25.917969 32.40625h-72.320312l-25.929688-32.414062c2.648438-3.195313 7.128906-7.1875 13.1875-7.5625zm120.902344 159.976562c0 13.230469-10.769531 24-24 24h-96c-13.230469 0-24-10.769531-24-24v-15.433594c0-33.246094 12.535156-64.574218 35.367188-88.566406h73.257812c22.839844 23.992188 35.375 55.320312 35.375 88.566406zm0 0" fill="#000000" data-original="#000000" style="" class=""></path> </g> </svg> 