<?xml version="1.0" encoding="UTF-8"?> <svg xmlns="http://www.w3.org/2000/svg" xmlns:xlink="http://www.w3.org/1999/xlink" xmlns:svgjs="http://svgjs.com/svgjs" width="512" height="512" x="0" y="0" viewBox="0 0 496 496" style="enable-background:new 0 0 512 512" xml:space="preserve" class=""> <g> <path xmlns="http://www.w3.org/2000/svg" d="m456 0h-427.632812c-15.640626 0-28.367188 12.726562-28.367188 28.367188 0 10 5.351562 19.359374 13.960938 24.433593l82.039062 48.34375v-45.144531c0-8.839844 7.160156-16 16-16h16c8.839844 0 16 7.160156 16 16v53.609375c15.183594 7.261719 26.664062 21.015625 30.527344 37.804687l121.472656 71.578126v-66.992188l9.441406-11.015625-1.441406-.847656-115.632812-68.136719h235.632812v138.847656l-31.992188-18.847656-.007812-.007812v83.566406l54.03125 31.839844c5.097656 3.015624 10.914062 4.601562 16.824219 4.601562 18.28125 0 33.144531-14.863281 33.144531-33.144531v-238.855469c0-22.054688-17.945312-40-40-40zm0 0" fill="#fee100" data-original="#f0bc5e" style="" class=""></path> <path xmlns="http://www.w3.org/2000/svg" d="m120 128c-17.648438 0-32 14.351562-32 32s14.351562 32 32 32 32-14.351562 32-32-14.351562-32-32-32zm0 48c-8.824219 0-16-7.175781-16-16s7.175781-16 16-16 16 7.175781 16 16-7.175781 16-16 16zm0 0" fill="#000000" data-original="#000000" style="" class=""></path> <path xmlns="http://www.w3.org/2000/svg" d="m174.425781 193.503906c6.03125-9.761718 9.574219-21.207031 9.574219-33.503906 0-23.625-12.902344-44.257812-32-55.34375v-48.65625c0-13.230469-10.769531-24-24-24h-16c-13.230469 0-24 10.769531-24 24v48.65625c-19.097656 11.085938-32 31.71875-32 55.34375 0 12.296875 3.542969 23.742188 9.574219 33.503906l-62.023438 118.144532c-2.328125 4.070312-3.550781 8.695312-3.550781 13.390624 0 10.960938 6.59375 20.367188 16 24.585938v34.375h16v-32.199219c8.480469-.960937 16.136719-5.914062 20.542969-13.640625l59.984375-114.632812c2.457031.289062 4.945312.472656 7.472656.472656s5.015625-.183594 7.472656-.472656l60.128906 114.886718c4.285157 7.507813 11.925782 12.425782 20.40625 13.386719v32.199219h16v-34.382812c9.40625-4.21875 16-13.625 16-24.585938 0-4.695312-1.222656-9.320312-3.414062-13.136719zm-70.425781-137.503906c0-4.414062 3.585938-8 8-8h16c4.414062 0 8 3.585938 8 8v42.105469c-5.128906-1.328125-10.464844-2.105469-16-2.105469s-10.871094.777344-16 2.105469zm-65.488281 274.480469c-1.945313 3.398437-5.589844 5.519531-9.519531 5.519531h-2.03125c-6.050782 0-10.960938-4.910156-10.960938-10.960938 0-1.902343.496094-3.792968 1.585938-5.695312l59.023437-112.433594c5.78125 5.355469 12.519531 9.648438 19.964844 12.59375zm33.488281-170.480469c0-26.472656 21.527344-48 48-48s48 21.527344 48 48-21.527344 48-48 48-48-21.527344-48-48zm141.039062 176h-2.03125c-3.929687 0-7.574218-2.121094-9.382812-5.265625l-58.210938-111.230469c7.449219-2.945312 14.195313-7.238281 19.96875-12.59375l59.167969 112.691406c.953125 1.644532 1.449219 3.535157 1.449219 5.4375 0 6.050782-4.910156 10.960938-10.960938 10.960938zm0 0" fill="#000000" data-original="#000000" style="" class=""></path> <path xmlns="http://www.w3.org/2000/svg" d="m432 64h-272.96875l134.121094 79.03125-5.152344 6.007812v290.960938c0 30.871094 25.128906 56 56 56s56-25.128906 56-56v-234.007812l32 18.855468zm-128 96h32v224h-32zm0 240h80v16h-80zm48-16v-224h32v224zm-38.609375-240 30.609375-35.710938 30.609375 35.710938zm30.609375 336c-22.054688 0-40-17.945312-40-40v-8h80v8c0 22.054688-17.945312 40-40 40zm72-283.152344-16-9.421875v-38.386719l-56-65.328124-40.273438 46.984374-86.023437-50.695312h198.296875zm0 0" fill="#000000" data-original="#000000" style="" class=""></path> </g> </svg> 