<?xml version="1.0" encoding="UTF-8"?> <svg xmlns="http://www.w3.org/2000/svg" xmlns:xlink="http://www.w3.org/1999/xlink" xmlns:svgjs="http://svgjs.com/svgjs" width="512" height="512" x="0" y="0" viewBox="0 0 496 496" style="enable-background:new 0 0 512 512" xml:space="preserve" class=""> <g> <g xmlns="http://www.w3.org/2000/svg"> <path style="" d="M32.232,307.62c-0.88,0.248-1.8,0.376-2.744,0.376H26.2c-5.624,0-10.2-4.576-10.2-10.2 c0-4.552,3.064-8.592,7.448-9.824l186.456-52.336l-4.328-15.408l-79.68,22.368l-11.248-45.008l11.304-2.96 c6.424-1.68,11.744-5.72,14.976-11.368c3.128-5.48,3.904-11.824,2.192-17.856v-0.008c-3.568-12.52-16.952-19.928-29.832-16.584 l-63.24,16.544c-6.424,1.688-11.744,5.728-14.968,11.384c-3.128,5.472-3.904,11.816-2.192,17.856 c2.984,10.48,12.84,17.392,23.536,17.392c2.088,0,4.2-0.256,6.296-0.808l12.048-3.152l11.424,45.712L19.12,272.564 C7.856,275.724,0,286.1,0,297.796c0,14.44,11.76,26.2,26.2,26.2h3.288c2.408,0,4.8-0.328,7.088-0.976l156.792-44.008l-4.328-15.408 L32.232,307.62z M58.672,195.7c-4.528,1.192-9.2-1.264-10.4-5.472c-0.528-1.872-0.28-3.848,0.696-5.552 c1.08-1.888,2.904-3.256,5.136-3.832l63.224-16.544c0.776-0.208,1.544-0.304,2.312-0.304c3.712,0,7.088,2.28,8.088,5.768 c0.528,1.872,0.28,3.84-0.696,5.552c-1.08,1.888-2.904,3.248-5.136,3.832L58.672,195.7z M90.24,203.98l8.928-2.336l11.32,45.28 l-8.888,2.488L90.24,203.98z" fill="#333333" data-original="#333333" class=""></path> <path style="" d="M469.8,147.996h-3.288c-2.408,0-4.8,0.328-7.088,0.976l-53.2,14.936l-11.576-46.32l11.304-2.96 c6.424-1.68,11.744-5.72,14.976-11.368c3.128-5.48,3.904-11.824,2.192-17.856v-0.008c-3.568-12.512-16.968-19.944-29.832-16.584 l-63.232,16.544c-6.424,1.688-11.744,5.728-14.968,11.384c-3.128,5.472-3.904,11.816-2.192,17.856 c2.984,10.48,12.84,17.392,23.536,17.392c2.088,0,4.2-0.256,6.296-0.808l12.048-3.152l11.752,47.024l-97.856,27.472L273,217.932 l190.776-53.552c0.872-0.256,1.792-0.384,2.728-0.384h3.288c5.632,0,10.208,4.576,10.208,10.2c0,4.552-3.064,8.592-7.448,9.816 L291.992,234.7l4.328,15.408l180.56-50.688c11.256-3.16,19.12-13.528,19.12-25.224C496,159.756,484.24,147.996,469.8,147.996z M338.672,115.7c-4.52,1.184-9.2-1.264-10.4-5.472c-0.528-1.872-0.28-3.848,0.696-5.552c1.08-1.888,2.904-3.256,5.136-3.832 L397.328,84.3c0.776-0.208,1.544-0.304,2.312-0.304c3.712,0,7.088,2.28,8.088,5.768c0.528,1.872,0.28,3.84-0.696,5.552 c-1.08,1.888-2.904,3.248-5.136,3.832L338.672,115.7z M370.24,123.98l8.928-2.336l11.648,46.592l-8.896,2.496L370.24,123.98z" fill="#333333" data-original="#333333" class=""></path> </g> <path xmlns="http://www.w3.org/2000/svg" style="" d="M344,363.996v-9.432l-45.432-123.312C290.8,210.164,270.48,195.996,248,195.996 s-42.8,14.168-50.568,35.256L152,354.564v9.432h-8v56h208v-56H344z" fill="#fee100" data-original="#ffa64d" class=""></path> <g xmlns="http://www.w3.org/2000/svg"> <polygon style="" points="360,427.996 136,427.996 136,363.996 296,363.996 296,379.996 152,379.996 152,411.996 344,411.996 344,379.996 312,379.996 312,363.996 360,363.996 " fill="#333333" data-original="#333333" class=""></polygon> <path style="" d="M248,267.996c-13.232,0-24-10.768-24-24s10.768-24,24-24s24,10.768,24,24 S261.232,267.996,248,267.996z M248,235.996c-4.416,0-8,3.584-8,8c0,4.416,3.584,8,8,8c4.416,0,8-3.584,8-8 S252.416,235.996,248,235.996z" fill="#333333" data-original="#333333" class=""></path> </g> </g> </svg> 