<?xml version="1.0" encoding="UTF-8"?> <svg xmlns="http://www.w3.org/2000/svg" xmlns:xlink="http://www.w3.org/1999/xlink" xmlns:svgjs="http://svgjs.com/svgjs" width="512" height="512" x="0" y="0" viewBox="0 0 496 496" style="enable-background:new 0 0 512 512" xml:space="preserve"> <g> <path xmlns="http://www.w3.org/2000/svg" d="m432 350.558594v-77.117188l-30.511719-6.097656c-3.257812-11.246094-7.746093-22.070312-13.367187-32.296875l17.253906-25.878906-54.535156-54.535157-25.878906 17.253907c-10.226563-5.621094-21.050782-10.109375-32.296876-13.367188l-6.105468-30.519531h-77.117188l-6.097656 30.511719c-11.160156 3.230469-21.886719 7.664062-32.03125 13.207031l-26.199219-17.046875-54.433593 54.433594 17.046874 26.199219c-5.503906 10.054687-9.894531 20.6875-13.125 31.71875l-30.601562 6.488281v76.96875l30.601562 6.488281c3.222657 11.03125 7.621094 21.664062 13.125 31.71875l-17.046874 26.199219 54.433593 54.433593 26.199219-17.046874c10.054688 5.503906 20.6875 9.894531 31.71875 13.125l6.480469 30.601562h76.96875l6.488281-30.601562c11.128906-3.253907 21.847656-7.703126 31.984375-13.277344l25.878906 17.253906 54.535157-54.535156-17.253907-25.878906c5.621094-10.226563 10.109375-21.050782 13.367188-32.296876zm-184 9.441406c-26.511719 0-48-21.488281-48-48s21.488281-48 48-48 48 21.488281 48 48-21.488281 48-48 48zm0 0" fill="#fee100" data-original="#f0bc5e" style=""></path> <path xmlns="http://www.w3.org/2000/svg" d="m240 160h16v16h-16zm0 0" fill="#000000" data-original="#000000" style=""></path> <path xmlns="http://www.w3.org/2000/svg" d="m134.867188 210.171875 11.3125-11.3125 11.316406 11.3125-11.316406 11.316406zm0 0" fill="#000000" data-original="#000000" style=""></path> <path xmlns="http://www.w3.org/2000/svg" d="m96 304h16v16h-16zm0 0" fill="#000000" data-original="#000000" style=""></path> <path xmlns="http://www.w3.org/2000/svg" d="m134.863281 413.820312 11.316407-11.316406 11.3125 11.316406-11.3125 11.3125zm0 0" fill="#000000" data-original="#000000" style=""></path> <path xmlns="http://www.w3.org/2000/svg" d="m240 448h16v16h-16zm0 0" fill="#000000" data-original="#000000" style=""></path> <path xmlns="http://www.w3.org/2000/svg" d="m338.503906 413.820312 11.3125-11.3125 11.3125 11.3125-11.3125 11.3125zm0 0" fill="#000000" data-original="#000000" style=""></path> <path xmlns="http://www.w3.org/2000/svg" d="m384 304h16v16h-16zm0 0" fill="#000000" data-original="#000000" style=""></path> <path xmlns="http://www.w3.org/2000/svg" d="m338.503906 210.175781 11.316406-11.316406 11.3125 11.316406-11.3125 11.3125zm0 0" fill="#000000" data-original="#000000" style=""></path> <path xmlns="http://www.w3.org/2000/svg" d="m248 416c-57.34375 0-104-46.65625-104-104s46.65625-104 104-104 104 46.65625 104 104-46.65625 104-104 104zm0-192c-48.519531 0-88 39.480469-88 88s39.480469 88 88 88 88-39.480469 88-88-39.480469-88-88-88zm0 0" fill="#000000" data-original="#000000" style=""></path> <path xmlns="http://www.w3.org/2000/svg" d="m248 368c-30.871094 0-56-25.121094-56-56s25.128906-56 56-56 56 25.121094 56 56-25.128906 56-56 56zm0-96c-22.054688 0-40 17.945312-40 40s17.945312 40 40 40 40-17.945312 40-40-17.945312-40-40-40zm0 0" fill="#000000" data-original="#000000" style=""></path> <path xmlns="http://www.w3.org/2000/svg" d="m432 416h16v16h-16zm0 0" fill="#000000" data-original="#000000" style=""></path> <path xmlns="http://www.w3.org/2000/svg" d="m432 448h16v16h-16zm0 0" fill="#000000" data-original="#000000" style=""></path> <path xmlns="http://www.w3.org/2000/svg" d="m448 432h16v16h-16zm0 0" fill="#000000" data-original="#000000" style=""></path> <path xmlns="http://www.w3.org/2000/svg" d="m416 432h16v16h-16zm0 0" fill="#000000" data-original="#000000" style=""></path> <path xmlns="http://www.w3.org/2000/svg" d="m16 432h16v16h-16zm0 0" fill="#000000" data-original="#000000" style=""></path> <path xmlns="http://www.w3.org/2000/svg" d="m16 464h16v16h-16zm0 0" fill="#000000" data-original="#000000" style=""></path> <path xmlns="http://www.w3.org/2000/svg" d="m32 448h16v16h-16zm0 0" fill="#000000" data-original="#000000" style=""></path> <path xmlns="http://www.w3.org/2000/svg" d="m0 448h16v16h-16zm0 0" fill="#000000" data-original="#000000" style=""></path> <path xmlns="http://www.w3.org/2000/svg" d="m464 160h16v16h-16zm0 0" fill="#000000" data-original="#000000" style=""></path> <path xmlns="http://www.w3.org/2000/svg" d="m464 192h16v16h-16zm0 0" fill="#000000" data-original="#000000" style=""></path> <path xmlns="http://www.w3.org/2000/svg" d="m480 176h16v16h-16zm0 0" fill="#000000" data-original="#000000" style=""></path> <path xmlns="http://www.w3.org/2000/svg" d="m448 176h16v16h-16zm0 0" fill="#000000" data-original="#000000" style=""></path> <path xmlns="http://www.w3.org/2000/svg" d="m32 176h16v16h-16zm0 0" fill="#000000" data-original="#000000" style=""></path> <path xmlns="http://www.w3.org/2000/svg" d="m32 208h16v16h-16zm0 0" fill="#000000" data-original="#000000" style=""></path> <path xmlns="http://www.w3.org/2000/svg" d="m48 192h16v16h-16zm0 0" fill="#000000" data-original="#000000" style=""></path> <path xmlns="http://www.w3.org/2000/svg" d="m16 192h16v16h-16zm0 0" fill="#000000" data-original="#000000" style=""></path> <path xmlns="http://www.w3.org/2000/svg" d="m424 144c-23.992188 0-46.496094-12.152344-59.800781-32h-232.398438c-13.304687 19.847656-35.808593 32-59.800781 32-16.511719 0-32.089844-5.511719-45.023438-15.9375l-2.976562-2.398438v-29.664062h35.054688l12-24-12-24h-35.054688v-29.664062l2.976562-2.398438c12.933594-10.425781 28.511719-15.9375 45.023438-15.9375 23.992188 0 46.496094 12.152344 59.800781 32h232.40625c13.296875-19.847656 35.800781-32 59.792969-32 16.511719 0 32.089844 5.511719 45.023438 15.9375l2.976562 2.398438v29.664062h-35.054688l-12 24 12 24h35.054688v29.664062l-2.976562 2.398438c-12.933594 10.425781-28.511719 15.9375-45.023438 15.9375zm-301.238281-48h250.484375l2.3125 3.992188c10 17.273437 28.570312 28.007812 48.441406 28.007812 11.585938 0 22.566406-3.496094 32-10.144531v-5.855469h-28.945312l-20-40 20-40h28.945312v-5.855469c-9.433594-6.648437-20.414062-10.144531-32-10.144531-19.871094 0-38.441406 10.734375-48.449219 28.007812l-2.3125 3.992188h-250.476562l-2.3125-3.992188c-10.007813-17.273437-28.578125-28.007812-48.449219-28.007812-11.585938 0-22.566406 3.496094-32 10.144531v5.855469h28.945312l20 40-20 40h-28.945312v5.855469c9.433594 6.648437 20.414062 10.144531 32 10.144531 19.871094 0 38.441406-10.734375 48.449219-28.007812zm0 0" fill="#000000" data-original="#000000" style=""></path> </g> </svg> 