<?xml version="1.0" encoding="UTF-8"?> <svg xmlns="http://www.w3.org/2000/svg" xmlns:xlink="http://www.w3.org/1999/xlink" xmlns:svgjs="http://svgjs.com/svgjs" width="512" height="512" x="0" y="0" viewBox="0 0 496 496" style="enable-background:new 0 0 512 512" xml:space="preserve" class=""> <g> <g xmlns="http://www.w3.org/2000/svg" fill="#f0bc5e"> <path d="m484.441406 361.34375c-12.800781-8.527344-20.441406-22.808594-20.441406-38.183594v-51.160156c0-44.113281-35.886719-80-80-80s-80 35.886719-80 80v51.160156c0 15.382813-7.640625 29.65625-20.441406 38.183594l-8.117188 5.417969 6.894532 6.894531c.574218.574219 11.503906 11.085938 32.425781 15.910156l45.238281-13.566406v-14.472656c-9.800781-5.671875-17.375-14.703125-21.207031-25.527344h-2.800781c-13.25 0-23.992188-10.742188-23.992188-23.992188 0-13.253906 10.742188-24 24-24.007812h9.375c14.488281 0 28.386719-5.753906 38.625-16 10.246094 10.246094 24.136719 16 38.625 16h9.375c13.257812 0 24 10.742188 24 24s-10.742188 24-24 24h-2.785156c-3.832032 10.824219-11.414063 19.847656-21.207032 25.527344v14.472656l45.230469 13.566406c20.914063-4.824218 31.839844-15.335937 32.425781-15.910156l6.894532-6.894531zm0 0" fill="#fee100" data-original="#f0bc5e" style="" class=""></path> <path d="m112 40h96v72h-96zm0 0" fill="#fee100" data-original="#f0bc5e" style="" class=""></path> <path d="m112 160c-44.113281 0-80 35.886719-80 80v40h8c0-13.257812 10.742188-24 24-24h96c13.257812 0 24 10.742188 24 24h8v-40c0-44.113281-35.886719-80-80-80zm0 0" fill="#fee100" data-original="#f0bc5e" style="" class=""></path> </g> <path xmlns="http://www.w3.org/2000/svg" d="m467.496094 385.496094-51.496094-15.449219v-4.160156c8.007812-5.597657 14.457031-13.238281 18.648438-22.160157 16.390624-1.367187 29.351562-14.992187 29.351562-31.726562 0-17.648438-14.351562-32-32-32h-9.375c-12.457031 0-24.167969-4.847656-32.96875-13.65625l-5.65625-5.664062-5.65625 5.664062c-8.808594 8.808594-20.511719 13.65625-32.96875 13.65625h-9.375c-17.648438 0-32 14.359375-32 32.007812 0 16.734376 12.960938 30.351563 29.351562 31.726563 4.191407 8.921875 10.640626 16.5625 18.648438 22.160156v4.160157l-51.496094 15.449218c-17.046875 5.105469-28.503906 20.496094-28.503906 38.304688v72.191406h224v-72.191406c0-17.808594-11.457031-33.199219-28.503906-38.3125zm-45.152344 3.160156-10.847656 37.96875-16.929688-12.695312 17.089844-28.480469zm-38.34375 11.800781-16-26.664062v-.144531c5.070312 1.511718 10.441406 2.351562 16 2.351562s10.929688-.839844 16-2.359375v.144531zm64-88.457031c0 6.03125-3.390625 11.222656-8.328125 13.953125.207031-1.960937.328125-3.945313.328125-5.953125v-21.777344c4.761719 2.777344 8 7.882813 8 13.777344zm-128 .007812c0-5.894531 3.238281-11 8-13.777343v21.769531c0 2.015625.121094 4 .328125 5.953125-4.9375-2.722656-8.328125-7.921875-8.328125-13.945313zm24 7.992188v-24h1.375c14.183594 0 27.648438-4.679688 38.625-13.320312 10.976562 8.640624 24.441406 13.320312 38.625 13.320312h1.375v24c0 22.054688-17.945312 40-40 40s-40-17.945312-40-40zm12.34375 65.449219 17.089844 28.480469-16.929688 12.695312-10.847656-37.96875zm-68.34375 38.359375c0-10.679688 6.871094-19.921875 17.105469-22.984375l25.222656-7.566407 17.175781 60.117188 28.496094-21.375v48h-40v-32h-16v32h-32zm192 56.191406h-32v-32h-16v32h-40v-48l28.496094 21.375 17.175781-60.117188 25.222656 7.566407c10.234375 3.0625 17.105469 12.304687 17.105469 22.984375zm0 0" fill="#000000" data-original="#000000" style=""></path> <path xmlns="http://www.w3.org/2000/svg" d="m195.496094 353.496094-51.496094-15.449219v-4.160156c8.007812-5.597657 14.457031-13.238281 18.648438-22.160157 16.390624-1.367187 29.351562-14.992187 29.351562-31.726562 0-17.648438-14.351562-32-32-32h-96c-17.648438 0-32 14.359375-32 32.007812 0 16.734376 12.960938 30.351563 29.351562 31.726563 4.191407 8.921875 10.640626 16.5625 18.648438 22.160156v4.160157l-51.496094 15.449218c-17.046875 5.105469-28.503906 20.496094-28.503906 38.304688v72.191406h224v-72.191406c0-17.808594-11.457031-33.199219-28.503906-38.3125zm-45.152344 3.160156-10.847656 37.96875-16.929688-12.695312 17.089844-28.480469zm-38.34375 11.800781-16-26.664062v-.144531c5.070312 1.511718 10.441406 2.351562 16 2.351562s10.929688-.839844 16-2.359375v.144531zm64-88.457031c0 6.03125-3.390625 11.222656-8.328125 13.953125.207031-1.960937.328125-3.945313.328125-5.953125v-21.777344c4.761719 2.777344 8 7.882813 8 13.777344zm-128 .007812c0-5.894531 3.238281-11 8-13.777343v21.769531c0 2.015625.121094 4 .328125 5.953125-4.9375-2.722656-8.328125-7.921875-8.328125-13.945313zm24 7.992188v-24h80v24c0 22.054688-17.945312 40-40 40s-40-17.945312-40-40zm12.34375 65.449219 17.089844 28.480469-16.929688 12.695312-10.847656-37.96875zm123.65625 94.550781h-32v-32h-16v32h-96v-32h-16v32h-32v-56.191406c0-10.679688 6.871094-19.921875 17.105469-22.984375l25.222656-7.566407 17.175781 60.117188 36.496094-27.375 36.496094 27.375 17.175781-60.117188 25.222656 7.566407c10.234375 3.0625 17.105469 12.304687 17.105469 22.984375zm0 0" fill="#000000" data-original="#000000" style=""></path> <path xmlns="http://www.w3.org/2000/svg" d="m232 144h-128c-13.230469 0-24-10.769531-24-24v-96c0-13.230469 10.769531-24 24-24h160c13.230469 0 24 10.769531 24 24v16h-16v-16c0-4.40625-3.585938-8-8-8h-160c-4.414062 0-8 3.59375-8 8v96c0 4.40625 3.585938 8 8 8h128zm0 0" fill="#000000" data-original="#000000" style=""></path> <path xmlns="http://www.w3.org/2000/svg" d="m112 96h64v16h-64zm0 0" fill="#000000" data-original="#000000" style=""></path> <path xmlns="http://www.w3.org/2000/svg" d="m192 96h16v16h-16zm0 0" fill="#000000" data-original="#000000" style=""></path> <path xmlns="http://www.w3.org/2000/svg" d="m112 32h96v16h-96zm0 0" fill="#000000" data-original="#000000" style=""></path> <path xmlns="http://www.w3.org/2000/svg" d="m112 64h96v16h-96zm0 0" fill="#000000" data-original="#000000" style=""></path> <path xmlns="http://www.w3.org/2000/svg" d="m408 176h-160c-13.230469 0-24-10.769531-24-24v-96c0-13.230469 10.769531-24 24-24h160c13.230469 0 24 10.769531 24 24v96c0 13.230469-10.769531 24-24 24zm0 0" fill="#fee100" data-original="#f0bc5e" style="" class=""></path> <path xmlns="http://www.w3.org/2000/svg" d="m256 128h112v16h-112zm0 0" fill="#000000" data-original="#000000" style=""></path> <path xmlns="http://www.w3.org/2000/svg" d="m384 128h16v16h-16zm0 0" fill="#000000" data-original="#000000" style=""></path> <path xmlns="http://www.w3.org/2000/svg" d="m256 64h144v16h-144zm0 0" fill="#000000" data-original="#000000" style=""></path> <path xmlns="http://www.w3.org/2000/svg" d="m256 96h144v16h-144zm0 0" fill="#000000" data-original="#000000" style=""></path> <path xmlns="http://www.w3.org/2000/svg" d="m448 64h16v16h-16zm0 0" fill="#000000" data-original="#000000" style=""></path> <path xmlns="http://www.w3.org/2000/svg" d="m448 96h16v16h-16zm0 0" fill="#000000" data-original="#000000" style=""></path> <path xmlns="http://www.w3.org/2000/svg" d="m448 128h16v16h-16zm0 0" fill="#000000" data-original="#000000" style=""></path> <path xmlns="http://www.w3.org/2000/svg" d="m48 32h16v16h-16zm0 0" fill="#000000" data-original="#000000" style=""></path> <path xmlns="http://www.w3.org/2000/svg" d="m48 64h16v16h-16zm0 0" fill="#000000" data-original="#000000" style=""></path> <path xmlns="http://www.w3.org/2000/svg" d="m48 96h16v16h-16zm0 0" fill="#000000" data-original="#000000" style=""></path> </g> </svg> 