<?xml version="1.0" encoding="UTF-8"?> <svg xmlns="http://www.w3.org/2000/svg" xmlns:xlink="http://www.w3.org/1999/xlink" xmlns:svgjs="http://svgjs.com/svgjs" width="512" height="512" x="0" y="0" viewBox="0 0 497.44 497.44" style="enable-background:new 0 0 512 512" xml:space="preserve" class=""> <g> <g xmlns="http://www.w3.org/2000/svg"> <polygon style="" points="152,440.72 408,440.72 416,488.72 144,488.72 " fill="#fee100" data-original="#ffcb57"></polygon> <path style="" d="M391.72,112.72C388.192,62.704,351.784,21.84,304,11.392V8.72h-48v2.672 c-47.784,10.448-84.192,51.312-87.72,101.328H144v32h272v-32H391.72z" fill="#fee100" data-original="#ffcb57"></path> </g> <g xmlns="http://www.w3.org/2000/svg"> <path style="" d="M118.56,408.72H73.44l-4.128-20.624c-2.656-0.928-5.248-2-7.76-3.192L44.064,396.56L16.8,369.296 l11.312-11.312l17.992,17.984l14.544-9.696l4.264,2.376c4.208,2.344,8.76,4.216,13.512,5.568l4.696,1.336l3.44,17.168h18.88 l3.432-17.168l4.696-1.336c4.76-1.352,9.304-3.224,13.512-5.568l4.264-2.376l14.544,9.696l13.352-13.352l-9.696-14.544l2.376-4.272 c2.328-4.168,4.2-8.712,5.568-13.504l1.336-4.696L176,322.168V303.28l-17.168-3.432l-1.336-4.696 c-1.368-4.784-3.24-9.328-5.576-13.512l13.984-7.784c2.144,3.848,3.976,7.928,5.472,12.176L192,290.168v45.112l-20.624,4.136 c-0.936,2.656-2,5.248-3.192,7.76l11.656,17.496l-31.904,31.896l-17.488-11.656c-2.512,1.192-5.112,2.264-7.76,3.192L118.56,408.72 z" fill="#fee100" data-original="#e56565" class=""></path> <path style="" d="M26.096,351.584c-2.144-3.84-3.976-7.928-5.472-12.176L0,335.272V290.16l20.624-4.136 c0.936-2.656,2-5.248,3.192-7.768L12.16,260.768l31.904-31.896l17.48,11.656c2.512-1.192,5.104-2.264,7.768-3.192l4.128-20.616 h45.12l4.128,20.624c2.664,0.936,5.256,2,7.768,3.192l17.48-11.656l27.264,27.264l-11.312,11.312l-17.992-17.992l-14.544,9.696 l-4.272-2.376c-4.176-2.336-8.728-4.208-13.512-5.576l-4.688-1.336l-3.44-17.152H86.56l-3.432,17.168l-4.688,1.336 c-4.784,1.368-9.336,3.24-13.512,5.576l-4.272,2.376l-14.544-9.696L32.76,262.832l9.696,14.536l-2.376,4.264 c-2.336,4.184-4.208,8.736-5.576,13.512l-1.336,4.696L16,303.272v18.888l17.168,3.432l1.336,4.696 c1.368,4.792,3.24,9.328,5.568,13.504L26.096,351.584z" fill="#fee100" data-original="#e56565" class=""></path> </g> <g xmlns="http://www.w3.org/2000/svg"> <path style="" d="M479.808,390.912c-5.368-32.232-27.968-58.68-58.976-69.016L352,298.952V288.72h-16v14l-56,105 l-56-105v-14h-16v18l64,120v14h-96v16h96v24H153.064l6.384-51.08C169.76,422.856,176,411.408,176,398.832v-6.112h-16v6.112 c0,7.984-4.44,15.168-11.576,18.736l-3.832,1.912l-7.656,61.24H81.44l9.112-54.688l-15.784-2.624L62.552,496.72H497.44 L479.808,390.912z M288,456.72h96v-16h-96v-14l59.88-112.272L384,326.48v72.344c0,12.576,6.24,24.024,16.552,30.816l6.384,51.08 H288V456.72z M423.064,480.72l-7.656-61.24l-3.832-1.912C404.44,413.992,400,406.816,400,398.832v-67.016l15.776,5.256 c25.368,8.464,43.856,30.104,48.256,56.472l14.52,87.176H423.064z" fill="#3f3a34" data-original="#3f3a34"></path> <path style="" d="M144,176.72c0,20.528,15.6,37.296,35.536,39.552c4.08,14.04,11.616,26.912,22.24,37.536l31.2,31.192 c7.552,7.552,17.6,11.72,28.28,11.72h37.496c10.68,0,20.728-4.168,28.28-11.72l31.2-31.192 c10.624-10.624,18.16-23.504,22.24-37.536C400.4,214.016,416,197.248,416,176.72c0-9.04-3.128-17.296-8.208-24H424v-48h-25.136 C392.488,57.496,358.024,17.984,312,5.224V0.72h-64v4.504c-46.024,12.76-80.496,52.28-86.864,99.496H136v48h16.208 C147.128,159.424,144,167.68,144,176.72z M160,176.72c0-10.416,6.712-19.216,16-22.528v37.392c0,2.616,0.152,5.208,0.376,7.784 C166.896,196.16,160,187.272,160,176.72z M346.912,242.496l-31.2,31.192c-4.464,4.472-10.648,7.032-16.968,7.032h-37.496 c-6.32,0-12.496-2.56-16.968-7.032l-31.2-31.192c-13.6-13.6-21.088-31.68-21.088-50.912V152.72h176v38.864 C368,210.816,360.512,228.896,346.912,242.496z M383.624,199.36c0.224-2.568,0.376-5.16,0.376-7.776v-37.392 c9.288,3.312,16,12.112,16,22.528C400,187.272,393.104,196.16,383.624,199.36z M248,21.888V88.72h16v-72h32v72h16V21.888 c37.08,12.024,64.752,44.312,70.768,82.832H177.232C183.248,66.2,210.92,33.912,248,21.888z M152,120.72h256v16H152V120.72z" fill="#3f3a34" data-original="#3f3a34"></path> <rect x="328" y="72.72" style="" width="16" height="16" fill="#3f3a34" data-original="#3f3a34"></rect> <rect x="216" y="72.72" style="" width="16" height="16" fill="#3f3a34" data-original="#3f3a34"></rect> <path style="" d="M96,352.72c22.056,0,40-17.944,40-40s-17.944-40-40-40s-40,17.944-40,40S73.944,352.72,96,352.72z M96,288.72c13.232,0,24,10.768,24,24s-10.768,24-24,24s-24-10.768-24-24S82.768,288.72,96,288.72z" fill="#3f3a34" data-original="#3f3a34"></path> </g> </g> </svg> 