<?xml version="1.0" encoding="UTF-8"?> <svg xmlns="http://www.w3.org/2000/svg" xmlns:xlink="http://www.w3.org/1999/xlink" xmlns:svgjs="http://svgjs.com/svgjs" width="512" height="512" x="0" y="0" viewBox="0 0 496 496" style="enable-background:new 0 0 512 512" xml:space="preserve" class=""> <g> <path xmlns="http://www.w3.org/2000/svg" style="" d="M328,96H56c-4.424,0-8-3.576-8-8V40c0-4.424,3.576-8,8-8h272c4.424,0,8,3.576,8,8v48 C336,92.424,332.424,96,328,96z" fill="#fee100" data-original="#f0bc5e"></path> <rect xmlns="http://www.w3.org/2000/svg" x="320" y="112" width="16" height="16" fill="#000000" data-original="#000000" style="" class=""></rect> <rect xmlns="http://www.w3.org/2000/svg" x="320" y="144" width="16" height="16" fill="#000000" data-original="#000000" style="" class=""></rect> <rect xmlns="http://www.w3.org/2000/svg" x="320" y="176" width="16" height="16" fill="#000000" data-original="#000000" style="" class=""></rect> <path xmlns="http://www.w3.org/2000/svg" d="M0,0v347.312L116.688,464H320.96v-16H128v-32h104V272H64v64H16V16h352v144h16V0H0z M112,436.688L27.312,352H112V436.688z M80,288h136v112h-88v-64H80V288z" fill="#000000" data-original="#000000" style="" class=""></path> <rect xmlns="http://www.w3.org/2000/svg" x="96" y="304" width="104" height="16" fill="#000000" data-original="#000000" style="" class=""></rect> <rect xmlns="http://www.w3.org/2000/svg" x="144" y="336" width="56" height="16" fill="#000000" data-original="#000000" style="" class=""></rect> <rect xmlns="http://www.w3.org/2000/svg" x="144" y="368" width="56" height="16" fill="#000000" data-original="#000000" style="" class=""></rect> <rect xmlns="http://www.w3.org/2000/svg" x="48" y="112" width="256" height="16" fill="#000000" data-original="#000000" style="" class=""></rect> <rect xmlns="http://www.w3.org/2000/svg" x="48" y="144" width="256" height="16" fill="#000000" data-original="#000000" style="" class=""></rect> <rect xmlns="http://www.w3.org/2000/svg" x="48" y="176" width="256" height="16" fill="#000000" data-original="#000000" style="" class=""></rect> <rect xmlns="http://www.w3.org/2000/svg" x="48" y="208" width="152" height="16" fill="#000000" data-original="#000000" style="" class=""></rect> <rect xmlns="http://www.w3.org/2000/svg" x="48" y="240" width="152" height="16" fill="#000000" data-original="#000000" style="" class=""></rect> <rect xmlns="http://www.w3.org/2000/svg" x="216" y="208" width="16" height="16" fill="#000000" data-original="#000000" style="" class=""></rect> <rect xmlns="http://www.w3.org/2000/svg" x="216" y="240" width="16" height="16" fill="#000000" data-original="#000000" style="" class=""></rect> <path xmlns="http://www.w3.org/2000/svg" style="" d="M376,496c-1.368,0-2.744-0.352-3.968-1.056l-63.632-36.36c-32.32-18.472-52.4-53.072-52.4-90.296V248 c0-4.424,3.576-8,8-8h22.312c33.44,0,64.48-16.608,83.032-44.44c2.968-4.456,10.344-4.456,13.312,0 c18.552,27.832,49.592,44.44,83.032,44.44H488c4.424,0,8,3.576,8,8v120.288c0,37.224-20.08,71.824-52.4,90.296l-63.632,36.36 C378.744,495.648,377.368,496,376,496z" fill="#fee100" data-original="#f0bc5e"></path> <path xmlns="http://www.w3.org/2000/svg" d="M427.72,430.808l-7.936-13.888c17.4-9.952,28.216-28.584,28.216-48.632V352h16v16.288 C464,394.064,450.096,418.016,427.72,430.808z" fill="#000000" data-original="#000000" style="" class=""></path> <rect xmlns="http://www.w3.org/2000/svg" x="448" y="320" width="16" height="16" fill="#000000" data-original="#000000" style="" class=""></rect> <polygon xmlns="http://www.w3.org/2000/svg" points="336,403.312 298.344,365.656 309.656,354.344 336,380.688 442.344,274.344 453.656,285.656 " fill="#000000" data-original="#000000" style="" class=""></polygon> <g xmlns="http://www.w3.org/2000/svg"> </g> <g xmlns="http://www.w3.org/2000/svg"> </g> <g xmlns="http://www.w3.org/2000/svg"> </g> <g xmlns="http://www.w3.org/2000/svg"> </g> <g xmlns="http://www.w3.org/2000/svg"> </g> <g xmlns="http://www.w3.org/2000/svg"> </g> <g xmlns="http://www.w3.org/2000/svg"> </g> <g xmlns="http://www.w3.org/2000/svg"> </g> <g xmlns="http://www.w3.org/2000/svg"> </g> <g xmlns="http://www.w3.org/2000/svg"> </g> <g xmlns="http://www.w3.org/2000/svg"> </g> <g xmlns="http://www.w3.org/2000/svg"> </g> <g xmlns="http://www.w3.org/2000/svg"> </g> <g xmlns="http://www.w3.org/2000/svg"> </g> <g xmlns="http://www.w3.org/2000/svg"> </g> </g> </svg> 