<?xml version="1.0" encoding="UTF-8"?> <svg xmlns="http://www.w3.org/2000/svg" xmlns:xlink="http://www.w3.org/1999/xlink" xmlns:svgjs="http://svgjs.com/svgjs" width="512" height="512" x="0" y="0" viewBox="0 0 495 496" style="enable-background:new 0 0 512 512" xml:space="preserve" class=""> <g> <path xmlns="http://www.w3.org/2000/svg" d="m349.445312 320c0 17.671875-14.328124 32-32 32-17.671874 0-32-14.328125-32-32h-96c0 13.257812-10.746093 24-24 24-6.554687 0-12.480468-2.640625-16.816406-6.894531l-111.183594 150.894531h448v-264zm0 0" fill="#fee100" data-original="#f0bc5e" style=""></path> <path xmlns="http://www.w3.org/2000/svg" d="m373.445312 0c-60.128906 0-110.609374 44.296875-118.777343 103.480469 2.585937 1.183593 5.175781 2.367187 7.609375 3.816406l15.734375-10.488281 22.625 22.625-10.488281 15.734375c3.871093 6.503906 6.839843 13.59375 8.742187 21.121093l18.554687 3.710938v32l-18.546874 3.710938c-1.230469 4.855468-3.046876 9.449218-5.117188 13.898437 21.992188 19.566406 50.125 30.390625 79.664062 30.390625 66.167969 0 120-53.832031 120-120s-53.832031-120-120-120zm0 0" fill="#fee100" data-original="#f0bc5e" style=""></path> <path xmlns="http://www.w3.org/2000/svg" d="m477.445312 480v-240.558594l12.613282-8.90625-9.222656-13.070312-125.945313 88.894531c-5.605469-15.328125-20.199219-26.359375-37.445313-26.359375-19.3125 0-35.472656 13.769531-39.191406 32h-81.945312c-3.578125-13.769531-16-24-30.863282-24-17.648437 0-32 14.351562-32 32 0 6.367188 1.917969 12.273438 5.132813 17.265625l-93.132813 126.390625v-47.65625h16v-16h-16v-16h32v-16h-32v-16h16v-16h-16v-16h32v-16h-32v-16h16v-16h-16v-16h32v-16h-32v-16h16v-16h-16v-16h32v-16h-32v-16h16v-16h-16v-16h32v-16h-32v-32h28.941407l-36.941407-73.886719-36.945312 73.886719h28.945312v416h464v-16zm-440-438.113281 11.054688 22.113281h-22.113281zm424 438.113281h-32v-206.679688l32-22.59375zm-104.449218-155.535156 8.449218-5.960938v161.496094h-32v-123.390625c12.78125-5.609375 21.917969-17.738281 23.550782-32.144531zm24.449218-17.257813 32-22.589843v195.382812h-32zm-64-11.207031c13.230469 0 24 10.769531 24 24s-10.769531 24-24 24c-13.234374 0-24-10.769531-24-24s10.765626-24 24-24zm0 64v120h-32v-136.246094c7.292969 9.796875 18.871094 16.246094 32 16.246094zm-224 65.480469 32-43.433594v97.953125h-32zm-16 54.519531h-24.167968l24.167968-32.800781zm64-119.65625 9.015626-12.238281c4.496093 2.398437 9.542968 3.894531 14.984374 3.894531 2.773438 0 5.421876-.464844 8-1.136719v129.136719h-32zm48-19.398438c3.214844-3.679687 5.597657-8.074218 6.863282-12.945312h25.136718v152h-32zm48-12.945312h32v152h-32zm-72-24c8.824219 0 16 7.175781 16 16s-7.175781 16-16 16c-8.824218 0-16-7.175781-16-16s7.175782-16 16-16zm0 0" fill="#000000" data-original="#000000" style=""></path> <path xmlns="http://www.w3.org/2000/svg" d="m143.378906 216.457031-11.421875 17.136719 31.894531 31.902344 17.136719-11.425782c4.441407 2.304688 9.070313 4.226563 13.855469 5.738282l4.039062 20.191406h45.121094l4.039063-20.191406c4.785156-1.511719 9.417969-3.441406 13.855469-5.738282l17.136718 11.425782 31.898438-31.902344-11.425782-17.136719c2.304688-4.441406 4.222657-9.074219 5.734376-13.855469l20.203124-4.042968v-4.816406c14.160157 9.257812 30.6875 14.257812 48 14.257812 20.246094 0 40.023438-7.054688 55.6875-19.871094l-10.136718-12.386718c-12.808594 10.480468-28.992188 16.257812-45.550782 16.257812-17.914062 0-34.777343-6.566406-48-18.441406v-20.117188l-20.191406-4.042968c-1.515625-4.78125-3.441406-9.414063-5.738281-13.855469l11.425781-17.136719-8.601562-8.597656c1.839844-12.953125 7.007812-25.144532 15.367187-35.367188l-12.382812-10.136718c-7.753907 9.480468-13.3125 20.328124-16.558594 31.917968l-9.722656-9.71875-17.136719 11.425782c-4.4375-2.304688-9.070312-4.226563-13.855469-5.738282l-4.046875-20.191406h-45.121094l-4.039062 20.191406c-4.785156 1.511719-9.414062 3.441406-13.855469 5.738282l-17.136719-11.425782-31.894531 31.894532 11.421875 17.136718c-2.304687 4.441406-4.222656 9.074219-5.734375 13.855469l-20.199219 4.050781v45.117188l20.191407 4.042968c1.519531 4.773438 3.4375 9.414063 5.742187 13.855469zm-9.933594-49.898437 17.054688-3.414063 1.238281-4.878906c1.707031-6.707031 4.355469-13.097656 7.867188-19l2.582031-4.335937-9.65625-14.480469 13.351562-13.351563 14.480469 9.65625 4.335938-2.585937c5.90625-3.511719 12.296875-6.167969 19-7.863281l4.878906-1.242188 3.425781-17.0625h18.878906l3.417969 17.054688 4.878907 1.242187c6.703124 1.703125 13.097656 4.351563 19 7.863281l4.335937 2.582032 14.480469-9.652344 13.351562 13.351562-9.65625 14.480469 2.585938 4.335937c3.511718 5.902344 6.167968 12.292969 7.863281 19l1.238281 4.878907 17.066406 3.421875v18.882812l-17.058593 3.414063-1.238281 4.878906c-1.703126 6.707031-4.351563 13.097656-7.863282 19l-2.585937 4.335937 9.65625 14.480469-13.351563 13.351563-14.480468-9.65625-4.335938 2.585937c-5.902344 3.511719-12.296875 6.167969-19 7.863281l-4.878906 1.242188-3.425782 17.0625h-18.878906l-3.414062-17.054688-4.882813-1.242187c-6.703125-1.703125-13.09375-4.351563-19-7.863281l-4.335937-2.582032-14.480469 9.652344-13.351563-13.351562 9.65625-14.480469-2.582031-4.335937c-3.511719-5.902344-6.167969-12.292969-7.867187-19l-1.238282-4.878907-17.0625-3.421875zm0 0" fill="#000000" data-original="#000000" style=""></path> <path xmlns="http://www.w3.org/2000/svg" d="m221.445312 136c22.054688 0 40 17.945312 40 40 0 8.320312-2.570312 16.320312-7.425781 23.144531l13.03125 9.28125c6.800781-9.546875 10.394531-20.761719 10.394531-32.425781 0-30.878906-25.121093-56-56-56-11.664062 0-22.882812 3.59375-32.425781 10.390625l9.28125 13.035156c6.824219-4.859375 14.824219-7.425781 23.144531-7.425781zm0 0" fill="#000000" data-original="#000000" style=""></path> <path xmlns="http://www.w3.org/2000/svg" d="m221.445312 232c11.664063 0 22.878907-3.59375 32.421876-10.390625l-9.277344-13.035156c-6.824219 4.859375-14.824219 7.425781-23.144532 7.425781-22.058593 0-40-17.945312-40-40 0-8.320312 2.566407-16.320312 7.421876-23.144531l-13.03125-9.28125c-6.800782 9.546875-10.390626 20.761719-10.390626 32.425781 0 30.878906 25.117188 56 56 56zm0 0" fill="#000000" data-original="#000000" style=""></path> <path xmlns="http://www.w3.org/2000/svg" d="m357.445312 88h32c4.40625 0 8 3.59375 8 8h16c0-13.230469-10.769531-24-24-24h-8v-8h-16v8h-8c-13.234374 0-24 10.769531-24 24v8c0 13.230469 10.765626 24 24 24h32c4.40625 0 8 3.59375 8 8v8c0 4.40625-3.59375 8-8 8h-32c-4.410156 0-8-3.59375-8-8h-16c0 13.230469 10.765626 24 24 24h8v8h16v-8h8c13.230469 0 24-10.769531 24-24v-8c0-13.230469-10.769531-24-24-24h-32c-4.410156 0-8-3.59375-8-8v-8c0-4.40625 3.589844-8 8-8zm0 0" fill="#000000" data-original="#000000" style=""></path> <path xmlns="http://www.w3.org/2000/svg" d="m373.445312 48c39.695313 0 72 32.304688 72 72 0 16.558594-5.777343 32.742188-16.257812 45.550781l12.382812 10.136719c12.816407-15.664062 19.875-35.441406 19.875-55.6875 0-48.519531-39.480468-88-88-88-20.25 0-40.023437 7.054688-55.6875 19.871094l10.132813 12.386718c12.808594-10.480468 28.992187-16.257812 45.554687-16.257812zm0 0" fill="#000000" data-original="#000000" style=""></path> </g> </svg> 