<?xml version="1.0" encoding="utf-8"?><svg xml:space="preserve" viewBox="0 0 100 100" y="0" x="0" xmlns="http://www.w3.org/2000/svg" id="圖層_1" version="1.1" width="200px" height="200px" xmlns:xlink="http://www.w3.org/1999/xlink" style="width:100%;height:100%;background-size:initial;background-repeat-y:initial;background-repeat-x:initial;background-position-y:initial;background-position-x:initial;background-origin:initial;background-image:initial;background-color:rgb(221, 221, 221);background-clip:initial;background-attachment:initial;animation-play-state:paused" ><g class="ldl-scale" style="transform-origin:50% 50%;transform:rotate(0deg) scale(0.8, 0.8);animation-play-state:paused" ><path fill="#d1d1d1" d="M92.5 71.675c0 2.909-2.471 5.289-5.491 5.289H12.992c-3.02 0-5.492-2.38-5.492-5.289v-43.35c0-2.909 2.471-5.289 5.492-5.289h74.017c3.019 0 5.491 2.38 5.491 5.289v43.35z" style="fill:rgb(0, 59, 255);animation-play-state:paused" ></path>
<g style="animation-play-state:paused" ><g style="animation-play-state:paused" ><path fill="#454545" d="M80.54 73.261c1.841 0 2.248-1.03.905-2.288L64.356 54.96c-1.343-1.259-3.607-1.333-5.03-.166l-4.615 3.786c-1.423 1.167-3.205 2.465-3.958 2.882h-1.505c-.753-.418-2.534-1.715-3.957-2.882l-4.81-3.946c-1.423-1.167-3.687-1.093-5.03.166l-17.26 16.173c-1.343 1.259-.936 2.288.905 2.288H80.54z" style="fill:rgb(255, 249, 249);animation-play-state:paused" ></path></g>
<g style="animation-play-state:paused" ><path fill="#454545" d="M19.967 26.739c-1.841 0-2.182.955-.759 2.123l28.205 23.137c1.423 1.167 3.752 1.167 5.175 0l28.204-23.137c1.423-1.168 1.081-2.123-.759-2.123H19.967z" style="fill:rgb(255, 249, 249);animation-play-state:paused" ></path></g>
<g style="animation-play-state:paused" ><path fill="#454545" d="M11.343 65.787c0 1.841 1.099 2.317 2.442 1.059l16.966-15.898c1.343-1.259 1.278-3.243-.145-4.411L13.93 32.857c-1.423-1.168-2.588-.617-2.588 1.224v31.706z" style="fill:rgb(255, 249, 249);animation-play-state:paused" ></path></g>
<g style="animation-play-state:paused" ><path fill="#454545" d="M88.657 34.08c0-1.841-1.165-2.392-2.588-1.224l-16.87 13.84c-1.423 1.168-1.489 3.152-.145 4.411l17.161 16.08c1.343 1.259 2.442.782 2.442-1.059V34.08z" style="fill:rgb(255, 249, 249);animation-play-state:paused" ></path></g></g>
<metadata xmlns:d="https://loading.io/stock/" style="animation-play-state:paused" ><d:name style="animation-play-state:paused" >post office</d:name>
<d:tags style="animation-play-state:paused" >mail,express,cargo,message,post office,map</d:tags>
<d:license style="animation-play-state:paused" >free</d:license>
<d:slug style="animation-play-state:paused" >5rbo5y</d:slug></metadata></g><!-- generated by https://loading.io/ --></svg>