<?xml version="1.0" encoding="iso-8859-1"?>
<!-- Generator: Adobe Illustrator 19.0.0, SVG Export Plug-In . SVG Version: 6.00 Build 0)  -->
<svg version="1.1" id="Layer_1" xmlns="http://www.w3.org/2000/svg" xmlns:xlink="http://www.w3.org/1999/xlink" x="0px" y="0px"
	 viewBox="0 0 512 512" style="enable-background:new 0 0 512 512;" xml:space="preserve">
<g>
	<g>
		<path d="M510.83,480.134l-44.227-137.118c13.946-31.256,21.016-64.585,21.016-99.206C487.619,109.373,378.246,0,243.81,0
			S0,109.373,0,243.81s109.373,243.81,243.81,243.81c37.791,0,99.304-10.289,132.754-26.917c0.439-0.244,0.853-0.463,1.292-0.707
			l98.865,49.445c3.438,1.707,7.192,2.56,10.898,2.56c5.705,0,11.362-2.024,15.872-5.876
			C510.952,499.712,513.829,489.472,510.83,480.134z M146.286,268.191c-13.458,0-24.381-10.923-24.381-24.381
			c0-13.458,10.923-24.381,24.381-24.381c13.458,0,24.381,10.923,24.381,24.381C170.667,257.268,159.744,268.191,146.286,268.191z
			 M243.81,268.191c-13.458,0-24.381-10.923-24.381-24.381c0-13.458,10.923-24.381,24.381-24.381
			c13.458,0,24.381,10.923,24.381,24.381C268.19,257.268,257.268,268.191,243.81,268.191z M341.333,268.191
			c-13.458,0-24.381-10.923-24.381-24.381c0-13.458,10.923-24.381,24.381-24.381c13.458,0,24.381,10.923,24.381,24.381
			C365.714,257.268,354.792,268.191,341.333,268.191z"/>
	</g>
</g>
<g>
</g>
<g>
</g>
<g>
</g>
<g>
</g>
<g>
</g>
<g>
</g>
<g>
</g>
<g>
</g>
<g>
</g>
<g>
</g>
<g>
</g>
<g>
</g>
<g>
</g>
<g>
</g>
<g>
</g>
</svg>
