<svg width="512" height="512" xmlns="http://www.w3.org/2000/svg" xml:space="preserve" version="1.1">

 <g>
  <title>Layer 1</title>
  <g id="svg_1">
   <g id="svg_2">
    <path fill="#ffffff" id="svg_3" d="m510.83,480.134l-44.227,-137.118c13.946,-31.256 21.016,-64.585 21.016,-99.206c0,-134.437 -109.373,-243.81 -243.809,-243.81s-243.81,109.373 -243.81,243.81s109.373,243.81 243.81,243.81c37.791,0 99.304,-10.289 132.754,-26.917c0.439,-0.244 0.853,-0.463 1.292,-0.707l98.865,49.445c3.438,1.707 7.192,2.56 10.898,2.56c5.705,0 11.362,-2.024 15.872,-5.876c7.461,-6.413 10.338,-16.653 7.339,-25.991zm-364.544,-211.943c-13.458,0 -24.381,-10.923 -24.381,-24.381c0,-13.458 10.923,-24.381 24.381,-24.381c13.458,0 24.381,10.923 24.381,24.381c0,13.458 -10.923,24.381 -24.381,24.381zm97.524,0c-13.458,0 -24.381,-10.923 -24.381,-24.381c0,-13.458 10.923,-24.381 24.381,-24.381c13.458,0 24.381,10.923 24.381,24.381c-0.001,13.458 -10.923,24.381 -24.381,24.381zm97.523,0c-13.458,0 -24.381,-10.923 -24.381,-24.381c0,-13.458 10.923,-24.381 24.381,-24.381c13.458,0 24.381,10.923 24.381,24.381c0,13.458 -10.922,24.381 -24.381,24.381z"/>
   </g>
  </g>
  <g id="svg_4"/>
  <g id="svg_5"/>
  <g id="svg_6"/>
  <g id="svg_7"/>
  <g id="svg_8"/>
  <g id="svg_9"/>
  <g id="svg_10"/>
  <g id="svg_11"/>
  <g id="svg_12"/>
  <g id="svg_13"/>
  <g id="svg_14"/>
  <g id="svg_15"/>
  <g id="svg_16"/>
  <g id="svg_17"/>
  <g id="svg_18"/>
 </g>
</svg>