<?xml version="1.0" encoding="utf-8"?><svg xml:space="preserve" viewBox="0 0 100 100" y="0" x="0" xmlns="http://www.w3.org/2000/svg" id="圖層_1" version="1.1" width="200px" height="200px" xmlns:xlink="http://www.w3.org/1999/xlink" style="width:100%;height:100%;background-size:initial;background-repeat-y:initial;background-repeat-x:initial;background-position-y:initial;background-position-x:initial;background-origin:initial;background-image:initial;background-color:rgb(255, 255, 255);background-clip:initial;background-attachment:initial;animation-play-state:paused" ><g class="ldl-scale" style="transform-origin:50% 50%;transform:rotate(0deg) scale(0.8, 0.8);animation-play-state:paused" ><path stroke-miterlimit="10" stroke-width="4" fill="none" stroke="#333" d="M37.198 30.539l2.59-2.59a8.267 8.267 0 0 0 0-11.692l-3.996-3.996a8.267 8.267 0 0 0-11.692 0l-1.998 1.998-4.478 4.478c-3.754 3.754-4.462 9.578-1.751 14.143C28.605 54.313 45.687 71.395 67.12 84.127c4.565 2.712 10.389 2.004 14.143-1.751l4.478-4.478L87.74 75.9a8.267 8.267 0 0 0 0-11.692l-3.996-3.996a8.267 8.267 0 0 0-11.692 0l-2.59 2.59c-1.289 1.289-3.352 1.417-4.769.271a186.545 186.545 0 0 1-27.765-27.765c-1.148-1.417-1.019-3.48.27-4.769z" style="stroke:rgb(51, 51, 51);animation-play-state:paused" ></path>
<metadata xmlns:d="https://loading.io/stock/" style="animation-play-state:paused" ><d:name style="animation-play-state:paused" >microphone</d:name>
<d:tags style="animation-play-state:paused" >phone,speaker,call,contact,line,dial,speak,microphone,communication</d:tags>
<d:license style="animation-play-state:paused" >by</d:license>
<d:slug style="animation-play-state:paused" >z8jmzm</d:slug></metadata></g><!-- generated by https://loading.io/ --></svg>